HIERARCHY
ROOT Hips
{
  OFFSET -35.2597 29.1586 114.425
  CHANNELS 6 Xposition Yposition Zposition Zrotation Xrotation Yrotation
  JOINT LeftUpLeg
  {
    OFFSET 8.64259 1.95398 -2.38835
    CHANNELS 3 Zrotation Xrotation Yrotation
    JOINT LeftLeg
    {
      OFFSET 43.7702 0 0
      CHANNELS 3 Zrotation Xrotation Yrotation
      JOINT LeftFoot
      {
        OFFSET 40.6238 0 0
        CHANNELS 3 Zrotation Xrotation Yrotation
        JOINT LeftToeBase
        {
          OFFSET 12.7242 0 0
          CHANNELS 3 Zrotation Xrotation Yrotation
          End Site
          {
            OFFSET 0 0 0
          }
        }
      }
    }
  }
  JOINT RightUpLeg
  {
    OFFSET -8.2249 1.95398 -2.59336
    CHANNELS 3 Zrotation Xrotation Yrotation
    JOINT RightLeg
    {
      OFFSET 43.5653 0 0
      CHANNELS 3 Zrotation Xrotation Yrotation
      JOINT RightFoot
      {
        OFFSET 40.6238 0 0
        CHANNELS 3 Zrotation Xrotation Yrotation
        JOINT RightToeBase
        {
          OFFSET 12.7242 0 0
          CHANNELS 3 Zrotation Xrotation Yrotation
          End Site
          {
            OFFSET 0 0 0
          }
        }
      }
    }
  }
  JOINT Spine
  {
    OFFSET 0.165834 0.87714 6.61349
    CHANNELS 3 Zrotation Xrotation Yrotation
    JOINT Spine1
    {
      OFFSET 7.38963 1.71661e-005 0
      CHANNELS 3 Zrotation Xrotation Yrotation
      JOINT Spine2
      {
        OFFSET 11.9445 1.14441e-005 0
        CHANNELS 3 Zrotation Xrotation Yrotation
        JOINT Spine3
        {
          OFFSET 14.7254 4.19617e-005 0
          CHANNELS 3 Zrotation Xrotation Yrotation
          JOINT Spine4
          {
            OFFSET 10.9679 0 0
            CHANNELS 3 Zrotation Xrotation Yrotation
            JOINT RightShoulder
            {
              OFFSET 2.46616 -1.6653 3.69651
              CHANNELS 3 Zrotation Xrotation Yrotation
              JOINT RightArm
              {
                OFFSET 13.0012 0 0
                CHANNELS 3 Zrotation Xrotation Yrotation
                JOINT RightForeArm
                {
                  OFFSET 28.7848 1.62311e-005 0
                  CHANNELS 3 Zrotation Xrotation Yrotation
                  JOINT RightHand
                  {
                    OFFSET 26.5688 1.62095e-005 0
                    CHANNELS 3 Zrotation Xrotation Yrotation
                    End Site
                    {
                      OFFSET 0 0 0
                    }
                  }
                }
              }
            }
            JOINT LeftShoulder
            {
              OFFSET 2.38034 -1.29275 -3.7523
              CHANNELS 3 Zrotation Xrotation Yrotation
              JOINT LeftArm
              {
                OFFSET 16.3182 6.07031e-005 0
                CHANNELS 3 Zrotation Xrotation Yrotation
                JOINT LeftForeArm
                {
                  OFFSET 27.0901 0 0
                  CHANNELS 3 Zrotation Xrotation Yrotation
                  JOINT LeftHand
                  {
                    OFFSET 24.5451 1.51738e-005 0
                    CHANNELS 3 Zrotation Xrotation Yrotation
                    End Site
                    {
                      OFFSET 0 0 0
                    }
                  }
                }
              }
            }
            JOINT Neck
            {
              OFFSET 5.0226 -0.0266342 0
              CHANNELS 3 Zrotation Xrotation Yrotation
              JOINT Head
              {
                OFFSET 6.69364 2.86102e-005 0
                CHANNELS 3 Zrotation Xrotation Yrotation
                End Site
                {
                  OFFSET 0 0 0
                }
              }
            }
          }
        }
      }
    }
  }
}
MOTION
Frames:	18
Frame Time:	0.0416667
-304.835 99.7621 -281.654 101.516 -49.1415 97.9943 -174.338 -6.9377 89.5962 -6.73672 1.31278 0.325958 64.7064 4.03748 -0.841485 14.6215 -0.985927 -9.94499 173.693 -2.45164 88.7865 -13.0959 -18.7649 -1.1264 60.8988 -0.0921129 -6.58913 26.2887 -1.73762 8.91545 -0.035901 8.00317 -90.0642 10.845 -0.101109 -0.118353 -0.825977 -0.106216 -0.113799 -23.3611 -0.0608881 -0.14328 -3.34846 -0.0608663 -0.143274 87.6455 -36.6184 -108.687 39.7471 8.19465 -8.66091 -7.37803 -61.9937 -7.00341 -11.8613 2.43498 -29.7271 -87.9295 -60.7985 83.5905 -22.8506 -13.7304 -17.717 3.3833 36.6601 -4.45376 -5.34462 0.32513 -20.2877 4.93788 -8.6579 -1.02667 -1.78364 -8.28856 -3.60657 
-304.871 99.7373 -281.576 101.445 -49.6628 98.2469 -174.133 -6.80296 89.8964 -6.85786 0.927492 0.254485 64.8216 4.03794 -0.666149 1.90249 1.90226 -20.7439 174.248 -2.37607 89.3302 -13.1182 -18.4668 -1.47747 60.8505 -0.126491 -6.20029 26.0505 -1.65111 8.89268 0.0317035 8.00256 -90.118 10.8631 0.00860411 -0.235499 -0.807833 -0.00174949 -0.235651 -23.3428 0.0789842 -0.222025 -3.33018 0.078985 -0.222012 87.7475 -36.2883 -108.628 38.2767 8.70779 -9.43 -8.12536 -65.9147 -7.65274 -4.2549 0.854125 -34.2317 -87.9193 -61.3035 83.6781 -22.3597 -14.0013 -17.2643 3.35617 35.8964 -4.42906 -5.49013 0.394724 -22.9704 5.07081 -8.47641 -0.454039 -1.68609 -8.20998 -4.38097 
-304.882 99.7142 -281.541 101.558 -49.5388 98.3654 -174.103 -6.64857 89.967 -7.40812 1.01447 0.289927 65.1358 4.08307 -0.689788 22.1346 -1.90652 -2.79036 174.196 -2.67605 89.3289 -12.8298 -18.0105 -1.40514 61.2281 -0.476977 -5.81147 25.6183 -1.4842 8.82221 0.0201876 8.00314 -90.1619 10.8682 -0.0345648 -0.318654 -0.802791 -0.0485807 -0.316831 -23.3376 0.0627889 -0.31431 -3.32499 0.0627783 -0.314324 87.5752 -35.9321 -109.072 35.2422 9.77774 -11.3134 -11.3772 -75.2385 -10.6779 10.1565 -4.1736 -45.6354 -87.9634 -62.1908 83.7493 -21.3007 -14.5058 -18.0241 3.51934 38.8751 -4.60032 -8.31581 0.754945 -20.2876 4.89664 -8.33832 0.179427 -1.24305 -8.20446 -4.73263 
-304.89 99.6555 -281.518 101.63 -49.4806 98.3877 -174.136 -6.48413 89.959 -7.82214 0.99263 0.332811 65.2587 3.97936 -0.979892 23.3189 -4.49519 3.05298 174.275 -3.07312 89.3329 -12.4615 -17.1675 -1.48465 61.8777 -1.00396 -5.05442 24.8451 -1.17352 8.6649 0.0218615 8.00425 -90.186 10.8652 -0.0423552 -0.365938 -0.805836 -0.0584278 -0.363717 -23.3406 0.0695674 -0.361745 -3.32794 0.069576 -0.361748 87.5144 -35.6723 -109.282 33.8819 10.1435 -13.0882 -19.0664 -82.352 -18.1985 18.8162 -9.22458 -55.2335 -88.0289 -62.4831 83.7057 -21.2929 -14.5031 -18.301 3.55661 39.5625 -4.63738 -8.25042 0.693667 -19.5164 4.72045 -8.46553 8.96386e-005 -0.797235 -8.31278 -3.85433 
-304.953 99.5808 -281.523 101.231 -49.2902 98.1172 -174.11 -5.78809 90.0219 -8.75336 1.30883 0.308224 65.9011 4.1926 -0.593863 22.5258 -4.45188 2.24087 174.365 -3.49051 89.3917 -11.5902 -15.894 -1.42734 62.5518 -1.6229 -4.05284 24.3763 -1.00844 8.64666 -0.0106089 7.97744 -90.233 10.9185 -0.128933 -0.451282 -0.752515 -0.148657 -0.445187 -23.287 0.0126536 -0.469175 -3.27438 0.0126628 -0.469169 87.6273 -35.1322 -109.286 34.136 10.0317 -13.0103 -17.2839 -81.3942 -16.439 19.0763 -9.19124 -54.6528 -88.0461 -63.2276 83.7908 -20.9004 -14.7029 -18.352 3.56887 39.5378 -4.65598 -8.25882 0.668929 -19.0602 5.10241 -8.31543 1.05874 -1.43357 -8.33448 -4.57974 
-304.996 99.483 -281.472 101.239 -49.1601 97.8873 -174 -5.3879 89.9852 -9.60629 1.49928 0.103602 66.253 4.22636 -0.785812 22.6681 -4.61979 2.66977 173.998 -3.19479 89.038 -11.9785 -14.7625 -1.21147 63.8282 -2.60883 -2.76621 22.8546 -0.488547 8.64616 -0.0176547 7.98562 -90.1941 10.9023 -0.124971 -0.37433 -0.768744 -0.141339 -0.368464 -23.3035 -0.00668526 -0.394578 -3.29082 -0.00669892 -0.394582 87.4648 -35.2876 -109.521 37.5971 8.97341 -9.72108 -8.34583 -66.8851 -7.84011 0.553996 -0.888814 -36.8545 -87.9873 -62.9535 83.8281 -21.1407 -14.5747 -18.5229 3.5852 40.0442 -4.66753 -8.18981 0.60895 -18.1429 4.89403 -8.31628 0.596743 -1.31455 -8.25717 -4.21638 
-305.128 99.3588 -281.369 101.14 -49.1383 97.8977 -173.885 -4.74211 90.2285 -10.7762 1.70633 0.0795739 66.7147 4.1905 -0.869545 23.1536 -4.42779 2.80683 174.056 -3.54472 89.138 -11.3936 -13.1903 -1.12228 64.8361 -3.44562 -1.15365 22.2052 -0.198757 8.45908 -0.00606877 8.00568 -90.2001 10.8622 -0.104548 -0.388215 -0.808811 -0.121531 -0.383246 -23.3435 0.0169656 -0.401687 -3.33085 0.0169589 -0.40169 87.5214 -35.1307 -109.479 42.7656 7.02565 -7.79193 -6.16346 -52.5514 -6.03652 -19.1208 3.20821 -22.7179 -87.9085 -62.3553 83.8455 -21.2115 -14.5366 -18.5801 3.55467 39.8749 -4.62881 -11.245 1.18067 -20.5139 4.97476 -8.23063 0.644772 -1.20616 -8.18595 -4.4457 
-305.283 99.2745 -281.221 101.212 -49.1445 98.2054 -173.818 -4.28205 90.5169 -11.8237 1.76213 0.248513 67.4758 4.37523 -0.575529 22.5587 -4.60172 2.52344 174.136 -4.26521 89.3866 -10.2575 -11.1791 -0.937194 65.7461 -4.25406 0.879591 20.7875 0.206349 8.69624 0.0207847 8.02721 -90.2371 10.8191 -0.0680332 -0.465131 -0.851965 -0.0884441 -0.461705 -23.3865 0.0749085 -0.46408 -3.37381 0.0748872 -0.464088 87.4143 -35.24 -109.632 41.9195 7.36752 -7.9776 -6.13014 -52.1848 -6.00529 -11.985 1.79071 -23.2432 -88.0076 -62.7085 83.7664 -21.8545 -14.206 -18.5483 3.54203 39.7408 -4.61439 -4.28176 0.223348 -16.2834 6.08584 -7.937 1.80643 -3.10859 -8.0129 -6.39798 
-305.413 99.1281 -280.98 100.896 -49.0947 97.6387 -173.996 -3.85648 90.3019 -12.3954 1.59148 0.321136 67.6575 4.23026 -0.765289 20.8697 -3.38979 -1.11474 174.233 -5.37298 89.2189 -8.58881 -9.24806 -1.08728 67.1713 -5.2261 3.07923 19.1581 0.98858 8.14206 0.0180567 7.9922 -90.2007 10.8892 -0.0568018 -0.393869 -0.781785 -0.0740815 -0.390994 -23.3165 0.0641903 -0.392731 -3.30383 0.0642017 -0.392732 87.4977 -35.142 -109.518 42.1152 7.33162 -7.75751 -6.10086 -51.8896 -5.98373 -12.0725 1.77448 -22.9155 -88.1504 -62.9536 83.6152 -21.2241 -14.5336 -18.4672 3.54797 39.2884 -4.63119 -6.89034 0.462809 -18.3279 6.27025 -7.90711 2.09899 -3.99737 -7.99058 -6.78808 
-305.354 99.0323 -280.649 101.298 -48.827 97.9287 -174.009 -4.05824 90.4098 -12.9355 1.8186 0.496767 67.963 4.21796 -0.911935 23.635 -4.2207 2.89969 174.19 -6.15122 89.232 -7.85996 -6.80262 -1.09137 68.6166 -6.02203 5.68766 17.5042 1.58144 8.1455 0.0103821 8.0211 -90.2084 10.8313 -0.0755416 -0.407355 -0.839673 -0.0934021 -0.403641 -23.3743 0.0503598 -0.411236 -3.36166 0.0503816 -0.411222 87.6239 -34.8987 -109.383 42.2601 7.33461 -7.47193 -6.07118 -51.5808 -5.96194 -12.2203 1.87501 -23.6659 -88.1196 -63.119 83.6795 -21.3034 -14.4878 -18.6349 3.54178 39.7349 -4.61394 -6.3092 0.362725 -17.5267 5.98593 -7.74375 2.44233 -3.64351 -7.90779 -6.97119 
-305.598 98.9086 -280.256 101.448 -48.9176 97.9752 -173.733 -3.87404 90.7587 -13.6852 1.91281 0.341232 68.3809 4.2109 -1.10097 23.655 -4.10897 2.7341 174.287 -6.46448 89.3152 -7.9601 -4.28348 -1.06681 70.8109 -6.91967 8.66733 15.4213 2.44001 7.9056 0.0514755 8.03145 -90.2061 10.8108 0.00742423 -0.410477 -0.86018 -0.0106709 -0.41041 -23.3949 0.130438 -0.389269 -3.3822 0.130428 -0.389276 87.6828 -35.0784 -109.205 41.9092 7.49644 -7.44722 -6.14915 -52.3763 -6.01912 -12.0349 1.88902 -24.1001 -88.1853 -63.2351 83.6107 -21.3904 -14.4435 -18.6132 3.55706 39.811 -4.63301 -5.27643 0.246276 -17.5171 5.89453 -7.82866 2.39278 -3.53031 -7.99481 -6.60303 
-305.673 98.7505 -279.886 101.419 -48.621 97.9896 -173.667 -3.5504 91.0316 -14.6476 2.24681 0.433375 68.962 4.29164 -1.07285 23.8758 -3.98094 2.70458 174.428 -6.8096 89.4951 -8.03734 -1.14675 -1.01528 73.1987 -7.89943 11.6251 14.043 2.99518 7.80459 0.0119479 8.04963 -90.2052 10.7743 -0.0706398 -0.401413 -0.896689 -0.0882577 -0.39792 -23.4313 0.0532422 -0.404088 -3.41871 0.0532563 -0.404086 87.5345 -35.1182 -109.461 41.9895 7.42416 -7.60316 -6.09472 -51.825 -5.97925 -12.0668 1.92326 -24.3751 -88.0114 -63.1189 83.8205 -21.3496 -14.4572 -18.8505 3.56004 39.6707 -4.63978 -5.64045 0.287335 -17.5328 6.29315 -7.55028 2.74306 -3.72868 -7.77801 -6.84203 
-305.34 98.5976 -279.613 101.115 -47.8928 97.368 -174.407 -3.3761 90.2835 -15.2809 1.99551 1.08585 69.454 4.30739 -1.42235 27.1644 -5.02004 8.06929 173.512 -7.12206 88.631 -8.15312 1.53205 -0.431534 75.7652 -8.73062 15.2245 11.8906 4.07779 7.22702 -0.0578589 8.02538 -90.1605 10.8228 -0.18929 -0.301454 -0.848202 -0.202376 -0.292829 -23.3831 -0.0899271 -0.344407 -3.37046 -0.0899346 -0.344405 87.5519 -35.3909 -109.323 41.7545 7.56225 -7.45915 -6.14675 -52.3538 -6.01747 -12.2032 2.003 -24.9102 -88.0883 -62.672 83.6554 -21.6088 -14.3309 -18.6053 3.55408 39.5708 -4.6333 -5.15426 0.223734 -17.2571 6.06897 -7.55636 2.21362 -3.46223 -7.70956 -6.09358 
-305.512 98.3969 -279.019 101.027 -47.833 97.3434 -174.291 -3.09088 90.6658 -16.1743 2.24018 1.18422 69.9447 4.39831 -1.33383 26.3108 -4.19543 5.61086 173.874 -7.64358 88.9849 -8.03759 4.79698 -0.493544 78.1969 -9.33866 18.691 10.6011 4.73333 6.91015 -0.0903713 8.04788 -90.1955 10.7775 -0.270027 -0.363764 -0.893454 -0.285785 -0.351527 -23.4283 -0.148235 -0.428101 -3.41563 -0.148231 -0.428102 87.5586 -35.1681 -109.397 41.8117 7.42362 -7.94452 -6.14445 -52.3301 -6.01577 -11.5487 1.8151 -24.1882 -87.9518 -63.0631 83.8902 -21.491 -14.3857 -18.7836 3.54562 39.4003 -4.62498 -4.43267 0.144878 -16.9599 6.22119 -7.31318 2.70946 -3.39497 -7.56657 -6.30883 
-305.777 98.23 -278.345 100.775 -47.9528 97.016 -174.181 -2.67843 90.9242 -17.013 2.07481 1.19973 70.4085 4.56835 -1.61497 25.9647 -3.50763 3.97549 173.953 -7.75149 89.1068 -8.15225 7.61361 -0.404836 80.5 -9.65143 22.2816 8.90551 5.62683 6.4737 -0.0680369 8.0262 -90.1747 10.8212 -0.216107 -0.327347 -0.849804 -0.2303 -0.317526 -23.3847 -0.107747 -0.37717 -3.37202 -0.107721 -0.37716 87.5116 -35.3707 -109.404 41.7253 7.52096 -7.69484 -6.1321 -52.2064 -6.00664 -11.5765 1.88781 -24.8323 -88.1157 -63.0172 83.6697 -21.8654 -14.2116 -18.3082 3.45065 37.8299 -4.52494 -1.87251 -0.159815 -16.3573 5.75369 -7.14838 2.39777 -3.23187 -7.35547 -5.92186 
-306.011 98.038 -277.579 101.234 -47.7525 97.2869 -173.841 -2.70218 91.48 -18.1893 2.21733 1.14261 71.212 5.18813 -1.9118 26.115 -3.17745 3.51414 173.973 -8.73622 89.2123 -7.94625 10.2092 -0.238396 82.1658 -9.584 25.4548 7.65498 6.18186 6.38623 -0.0429811 8.07992 -90.1609 10.7137 -0.159697 -0.30526 -0.957211 -0.172957 -0.297944 -23.4921 -0.0605614 -0.339137 -3.47948 -0.0605724 -0.339152 87.5151 -35.7074 -109.267 41.9241 7.47484 -7.51063 -6.05815 -51.4465 -5.95262 -12.7031 1.98081 -23.888 -88.094 -62.7477 83.6589 -22.4573 -13.9493 -17.2739 3.33623 35.6174 -4.40705 2.75302 -0.653068 -17.0736 5.14282 -7.00151 1.57312 -2.54505 -7.09795 -4.85318 
-306.277 97.7438 -276.751 101.615 -45.4382 96.8635 -173.724 -2.32655 91.7965 -20.0956 4.27514 1.23656 71.7811 6.36929 -1.91931 26.8706 -2.71213 3.41901 173.322 -9.62795 88.9666 -8.35831 14.1486 0.330273 84.5746 -9.75434 28.1331 6.52968 6.62457 6.42595 -0.261602 8.15917 -90.1096 10.5552 -0.571338 -0.166532 -1.11566 -0.578112 -0.141223 -23.6515 -0.494877 -0.330539 -3.63889 -0.494885 -0.330548 87.3722 -35.4461 -109.627 42.3179 7.3833 -7.15955 -6.0036 -50.8644 -5.91332 -13.0055 2.02145 -23.806 -87.8045 -62.5638 84.0119 -21.8238 -14.2811 -16.9047 3.35689 36.1912 -4.42543 4.18151 -0.752819 -15.8984 4.88109 -6.46183 1.66907 -2.9985 -6.56766 -4.86353 
-306.761 97.1651 -275.766 102.8 -46.1694 98.0547 -172.936 -1.48591 92.9279 -23.7908 3.8811 1.08616 73.2476 8.17904 -1.87959 28.8588 -2.25387 4.66404 173.886 -10.7292 89.7548 -8.38353 15.8407 0.243637 85.9382 -9.7811 30.4804 5.72214 6.83582 6.65378 -0.0278483 8.28979 -90.1258 10.2941 -0.112961 -0.239886 -1.37688 -0.12342 -0.234691 -23.9118 -0.0356265 -0.262744 -3.89911 -0.0356374 -0.262746 87.2628 -35.6725 -109.737 42.1193 7.48132 -7.116 -6.1116 -51.9997 -5.9916 -13.3822 2.03661 -23.3923 -87.8327 -62.2186 83.9247 -20.3782 -15.0118 -16.3714 3.31576 35.305 -4.38308 3.37436 -0.731889 -17.2006 4.19244 -6.10303 1.08119 -2.65085 -6.13646 -3.77655 
